<svg width="279" height="298" viewBox="0 0 279 298" fill="none" xmlns="http://www.w3.org/2000/svg">
<rect width="263" height="214" fill="#E9EDF5"/>
<path d="M80.77 71.614L131.109 42.7465V99.6914L80.77 124.615V71.614Z" fill="#1044FF"/>
<path d="M31.7114 42.3949L80.91 18.2979L131.617 43.6951L80.91 71.614L31.7114 42.3949Z" fill="#22F5FF"/>
<path d="M31.8515 97.1675V42.2743L80.77 71.2985V124.93L31.8515 97.1675Z" fill="#199DFF"/>
<path d="M179.619 73.0848L229.958 44.2172V101.162L179.619 126.085V73.0848Z" fill="#1044FF"/>
<path d="M130.561 43.8658L179.759 19.7686L230.467 45.166L179.759 73.0848L130.561 43.8658Z" fill="#22F5FF"/>
<path d="M130.701 98.6386V43.7451L179.619 72.7693V126.401L130.701 98.6386Z" fill="#199DFF"/>
<path d="M129.828 151.772L180.167 122.904V179.85L129.828 204.773V151.772Z" fill="#1044FF"/>
<path d="M80.77 122.553L129.968 98.4563L180.676 123.853L129.968 151.772L80.77 122.553Z" fill="#22F5FF"/>
<path d="M80.91 177.326V122.432L129.828 151.456V205.088L80.91 177.326Z" fill="#199DFF"/>
<path d="M71.45 257L63.75 243.4H60.45V257H53.45V222.1H66.55C69.25 222.1 71.55 222.583 73.45 223.55C75.35 224.483 76.7667 225.767 77.7 227.4C78.6667 229 79.15 230.8 79.15 232.8C79.15 235.1 78.4833 237.183 77.15 239.05C75.8167 240.883 73.8333 242.15 71.2 242.85L79.55 257H71.45ZM60.45 238.15H66.3C68.2 238.15 69.6167 237.7 70.55 236.8C71.4833 235.867 71.95 234.583 71.95 232.95C71.95 231.35 71.4833 230.117 70.55 229.25C69.6167 228.35 68.2 227.9 66.3 227.9H60.45V238.15ZM111.631 229.3V257H104.581V253.5C103.681 254.7 102.498 255.65 101.031 256.35C99.5979 257.017 98.0313 257.35 96.3313 257.35C94.1646 257.35 92.2479 256.9 90.5813 256C88.9146 255.067 87.5979 253.717 86.6313 251.95C85.6979 250.15 85.2313 248.017 85.2313 245.55V229.3H92.2313V244.55C92.2313 246.75 92.7813 248.45 93.8813 249.65C94.9813 250.817 96.4813 251.4 98.3813 251.4C100.315 251.4 101.831 250.817 102.931 249.65C104.031 248.45 104.581 246.75 104.581 244.55V229.3H111.631ZM125.538 233.35C126.438 232.017 127.671 230.933 129.238 230.1C130.838 229.267 132.655 228.85 134.688 228.85C137.055 228.85 139.188 229.433 141.088 230.6C143.021 231.767 144.538 233.433 145.638 235.6C146.771 237.733 147.338 240.217 147.338 243.05C147.338 245.883 146.771 248.4 145.638 250.6C144.538 252.767 143.021 254.45 141.088 255.65C139.188 256.85 137.055 257.45 134.688 257.45C132.621 257.45 130.805 257.05 129.238 256.25C127.705 255.417 126.471 254.35 125.538 253.05V257H118.538V220H125.538V233.35ZM140.188 243.05C140.188 241.383 139.838 239.95 139.138 238.75C138.471 237.517 137.571 236.583 136.438 235.95C135.338 235.317 134.138 235 132.838 235C131.571 235 130.371 235.333 129.238 236C128.138 236.633 127.238 237.567 126.538 238.8C125.871 240.033 125.538 241.483 125.538 243.15C125.538 244.817 125.871 246.267 126.538 247.5C127.238 248.733 128.138 249.683 129.238 250.35C130.371 250.983 131.571 251.3 132.838 251.3C134.138 251.3 135.338 250.967 136.438 250.3C137.571 249.633 138.471 248.683 139.138 247.45C139.838 246.217 140.188 244.75 140.188 243.05ZM155.975 226C154.741 226 153.708 225.617 152.875 224.85C152.075 224.05 151.675 223.067 151.675 221.9C151.675 220.733 152.075 219.767 152.875 219C153.708 218.2 154.741 217.8 155.975 217.8C157.208 217.8 158.225 218.2 159.025 219C159.858 219.767 160.275 220.733 160.275 221.9C160.275 223.067 159.858 224.05 159.025 224.85C158.225 225.617 157.208 226 155.975 226ZM159.425 229.3V257H152.425V229.3H159.425ZM182.741 257L173.341 245.2V257H166.341V220H173.341V241.05L182.641 229.3H191.741L179.541 243.2L191.841 257H182.741ZM206.14 257.45C203.873 257.45 201.84 257.05 200.04 256.25C198.24 255.417 196.807 254.3 195.74 252.9C194.707 251.5 194.14 249.95 194.04 248.25H201.09C201.223 249.317 201.74 250.2 202.64 250.9C203.573 251.6 204.723 251.95 206.09 251.95C207.423 251.95 208.457 251.683 209.19 251.15C209.957 250.617 210.34 249.933 210.34 249.1C210.34 248.2 209.873 247.533 208.94 247.1C208.04 246.633 206.59 246.133 204.59 245.6C202.523 245.1 200.823 244.583 199.49 244.05C198.19 243.517 197.057 242.7 196.09 241.6C195.157 240.5 194.69 239.017 194.69 237.15C194.69 235.617 195.123 234.217 195.99 232.95C196.89 231.683 198.157 230.683 199.79 229.95C201.457 229.217 203.407 228.85 205.64 228.85C208.94 228.85 211.573 229.683 213.54 231.35C215.507 232.983 216.59 235.2 216.79 238H210.09C209.99 236.9 209.523 236.033 208.69 235.4C207.89 234.733 206.807 234.4 205.44 234.4C204.173 234.4 203.19 234.633 202.49 235.1C201.823 235.567 201.49 236.217 201.49 237.05C201.49 237.983 201.957 238.7 202.89 239.2C203.823 239.667 205.273 240.15 207.24 240.65C209.24 241.15 210.89 241.667 212.19 242.2C213.49 242.733 214.607 243.567 215.54 244.7C216.507 245.8 217.007 247.267 217.04 249.1C217.04 250.7 216.59 252.133 215.69 253.4C214.823 254.667 213.557 255.667 211.89 256.4C210.257 257.1 208.34 257.45 206.14 257.45Z" fill="black"/>
</svg>
