<svg width="109" height="42" viewBox="0 0 109 42" fill="none" xmlns="http://www.w3.org/2000/svg">
<path d="M60.006 27L57.85 23.192H56.926V27H54.966V17.228H58.634C59.39 17.228 60.034 17.3633 60.566 17.634C61.098 17.8953 61.4947 18.2547 61.756 18.712C62.0267 19.16 62.162 19.664 62.162 20.224C62.162 20.868 61.9753 21.4513 61.602 21.974C61.2287 22.4873 60.6733 22.842 59.936 23.038L62.274 27H60.006ZM56.926 21.722H58.564C59.096 21.722 59.4927 21.596 59.754 21.344C60.0153 21.0827 60.146 20.7233 60.146 20.266C60.146 19.818 60.0153 19.4727 59.754 19.23C59.4927 18.978 59.096 18.852 58.564 18.852H56.926V21.722ZM71.2568 19.244V27H69.2828V26.02C69.0308 26.356 68.6994 26.622 68.2888 26.818C67.8874 27.0047 67.4488 27.098 66.9728 27.098C66.3661 27.098 65.8294 26.972 65.3628 26.72C64.8961 26.4587 64.5274 26.0807 64.2568 25.586C63.9954 25.082 63.8648 24.4847 63.8648 23.794V19.244H65.8248V23.514C65.8248 24.13 65.9788 24.606 66.2868 24.942C66.5948 25.2687 67.0148 25.432 67.5468 25.432C68.0881 25.432 68.5128 25.2687 68.8208 24.942C69.1288 24.606 69.2828 24.13 69.2828 23.514V19.244H71.2568ZM75.1506 20.378C75.4026 20.0047 75.7479 19.7013 76.1866 19.468C76.6346 19.2347 77.1433 19.118 77.7126 19.118C78.3753 19.118 78.9726 19.2813 79.5046 19.608C80.0459 19.9347 80.4706 20.4013 80.7786 21.008C81.0959 21.6053 81.2546 22.3007 81.2546 23.094C81.2546 23.8873 81.0959 24.592 80.7786 25.208C80.4706 25.8147 80.0459 26.286 79.5046 26.622C78.9726 26.958 78.3753 27.126 77.7126 27.126C77.1339 27.126 76.6253 27.014 76.1866 26.79C75.7573 26.5567 75.4119 26.258 75.1506 25.894V27H73.1906V16.64H75.1506V20.378ZM79.2526 23.094C79.2526 22.6273 79.1546 22.226 78.9586 21.89C78.7719 21.5447 78.5199 21.2833 78.2026 21.106C77.8946 20.9287 77.5586 20.84 77.1946 20.84C76.8399 20.84 76.5039 20.9333 76.1866 21.12C75.8786 21.2973 75.6266 21.5587 75.4306 21.904C75.2439 22.2493 75.1506 22.6553 75.1506 23.122C75.1506 23.5887 75.2439 23.9947 75.4306 24.34C75.6266 24.6853 75.8786 24.9513 76.1866 25.138C76.5039 25.3153 76.8399 25.404 77.1946 25.404C77.5586 25.404 77.8946 25.3107 78.2026 25.124C78.5199 24.9373 78.7719 24.6713 78.9586 24.326C79.1546 23.9807 79.2526 23.57 79.2526 23.094ZM83.6729 18.32C83.3276 18.32 83.0382 18.2127 82.8049 17.998C82.5809 17.774 82.4689 17.4987 82.4689 17.172C82.4689 16.8453 82.5809 16.5747 82.8049 16.36C83.0382 16.136 83.3276 16.024 83.6729 16.024C84.0182 16.024 84.3029 16.136 84.5269 16.36C84.7602 16.5747 84.8769 16.8453 84.8769 17.172C84.8769 17.4987 84.7602 17.774 84.5269 17.998C84.3029 18.2127 84.0182 18.32 83.6729 18.32ZM84.6389 19.244V27H82.6789V19.244H84.6389ZM91.1674 27L88.5354 23.696V27H86.5754V16.64H88.5354V22.534L91.1394 19.244H93.6874L90.2714 23.136L93.7154 27H91.1674ZM95.1432 17.228H97.2012L95.6892 20.756H94.3452L95.1432 17.228ZM101.575 27.126C100.94 27.126 100.371 27.014 99.8666 26.79C99.3626 26.5567 98.9613 26.244 98.6626 25.852C98.3733 25.46 98.2146 25.026 98.1866 24.55H100.161C100.198 24.8487 100.343 25.096 100.595 25.292C100.856 25.488 101.178 25.586 101.561 25.586C101.934 25.586 102.223 25.5113 102.429 25.362C102.643 25.2127 102.751 25.0213 102.751 24.788C102.751 24.536 102.62 24.3493 102.359 24.228C102.107 24.0973 101.701 23.9573 101.141 23.808C100.562 23.668 100.086 23.5233 99.7126 23.374C99.3486 23.2247 99.0313 22.996 98.7606 22.688C98.4993 22.38 98.3686 21.9647 98.3686 21.442C98.3686 21.0127 98.49 20.6207 98.7326 20.266C98.9846 19.9113 99.3393 19.6313 99.7966 19.426C100.263 19.2207 100.809 19.118 101.435 19.118C102.359 19.118 103.096 19.3513 103.647 19.818C104.197 20.2753 104.501 20.896 104.557 21.68H102.681C102.653 21.372 102.522 21.1293 102.289 20.952C102.065 20.7653 101.761 20.672 101.379 20.672C101.024 20.672 100.749 20.7373 100.553 20.868C100.366 20.9987 100.273 21.1807 100.273 21.414C100.273 21.6753 100.403 21.876 100.665 22.016C100.926 22.1467 101.332 22.282 101.883 22.422C102.443 22.562 102.905 22.7067 103.269 22.856C103.633 23.0053 103.945 23.2387 104.207 23.556C104.477 23.864 104.617 24.2747 104.627 24.788C104.627 25.236 104.501 25.6373 104.249 25.992C104.006 26.3467 103.651 26.6267 103.185 26.832C102.727 27.028 102.191 27.126 101.575 27.126Z" fill="black"/>
<path d="M16.2769 14.0551L26.4211 8.38947V19.5656L16.2769 24.4572V14.0551Z" fill="#1044FF"/>
<path d="M6.3905 8.32052L16.305 3.59119L26.5236 8.5757L16.305 14.0551L6.3905 8.32052Z" fill="#22F5FF"/>
<path d="M6.4187 19.0702V8.29681L16.2768 13.9932V24.5189L6.4187 19.0702Z" fill="#199DFF"/>
<path d="M36.197 14.3438L46.3415 8.67816V19.8543L36.197 24.7457V14.3438Z" fill="#1044FF"/>
<path d="M26.3108 8.60917L36.2253 3.87982L46.444 8.86435L36.2253 14.3438L26.3108 8.60917Z" fill="#22F5FF"/>
<path d="M26.339 19.359V8.58551L36.197 14.2818V24.8077L26.339 19.359Z" fill="#199DFF"/>
<path d="M26.1631 29.787L36.3074 24.1214V35.2977L26.1631 40.1891V29.787Z" fill="#1044FF"/>
<path d="M16.2769 24.0524L26.1914 19.3232L36.4099 24.3077L26.1914 29.7871L16.2769 24.0524Z" fill="#22F5FF"/>
<path d="M16.3051 34.8024V24.0287L26.1631 29.7251V40.2509L16.3051 34.8024Z" fill="#199DFF"/>
</svg>
